<?xml version="1.0" encoding="UTF-8"?>
<svg width="21px" height="29px" viewBox="0 0 21 29" version="1.1" xmlns="http://www.w3.org/2000/svg" xmlns:xlink="http://www.w3.org/1999/xlink">
    <!-- Generator: Sketch 41.2 (35397) - http://www.bohemiancoding.com/sketch -->
    <title>Group</title>
    <desc>Created with Sketch.</desc>
    <defs></defs>
    <g id="Page-1" stroke="none" stroke-width="1" fill="none" fill-rule="evenodd">
        <g id="Blocks-section-opened:-hover-on-block-Copy" transform="translate(-226.000000, -567.000000)" fill="#000000">
            <g id="Group-23" transform="translate(187.000000, 537.000000)">
                <g id="paper-with-text-copy-2" transform="translate(39.000000, 30.000000)">
                    <g id="Capa_1">
                        <g id="Group">
                            <path d="M20.8638075,25.1333631 C20.8782176,25.1087354 20.8907824,25.0829477 20.9011506,25.0559108 C20.9024686,25.0526092 20.903523,25.0493077 20.9047531,25.0460062 C20.914682,25.0186123 20.9227657,24.9904154 20.9283013,24.9611477 C20.9288285,24.9583815 20.9290921,24.9555262 20.9295314,24.95276 C20.9347155,24.9227785 20.9378787,24.8922615 20.9378787,24.8609415 L20.9378787,0.535384615 C20.9378787,0.239763077 20.7018703,0 20.410682,0 L0.589405858,0 C0.298305439,0 0.062209205,0.239763077 0.062209205,0.535384615 L0.062209205,28.4646154 C0.062209205,28.7603262 0.298305439,29 0.589405858,29 L17.2388033,29 C17.2575188,29 17.2758828,28.9989292 17.2940711,28.9970554 C17.2969707,28.9966985 17.2996946,28.9959846 17.302682,28.9956277 C17.3181464,28.9937538 17.3334351,28.9914338 17.3484603,28.9882215 C17.3516234,28.9875969 17.3546109,28.9865262 17.3577741,28.9858123 C17.372272,28.9824215 17.386682,28.9786738 17.4006527,28.9740338 C17.4047824,28.9726954 17.4087364,28.971 17.4126904,28.9695723 C17.4255188,28.9649323 17.4382594,28.9602031 17.4506485,28.9546708 C17.4557448,28.95244 17.4604895,28.9497631 17.4654979,28.9474431 C17.4764812,28.9420892 17.4872887,28.9367354 17.4978326,28.9306677 C17.5035439,28.9273662 17.5091674,28.9237077 17.5147908,28.9202277 C17.5240167,28.9144277 17.5333305,28.90836 17.5422929,28.9020246 C17.5482678,28.8977415 17.5540669,28.8931908 17.5598661,28.8887292 C17.5681255,28.8823046 17.5762092,28.8756123 17.5839414,28.8687415 C17.5896527,28.8636554 17.5952762,28.8585692 17.6007238,28.8532154 C17.6082803,28.8459877 17.6156611,28.8384031 17.6227782,28.8307292 C17.6256778,28.8275169 17.6289289,28.8247508 17.6319163,28.82136 L20.8037071,25.2175969 C20.8050251,25.21608 20.8058159,25.2143846 20.8071339,25.2128677 C20.8256736,25.1913631 20.8424561,25.1682523 20.8574812,25.1438923 C20.85959,25.1404123 20.8617866,25.1369323 20.8638075,25.1333631 Z M1.11660251,1.07076923 L19.8833975,1.07076923 L19.8833975,24.3254677 L17.2388033,24.3254677 C16.9477029,24.3254677 16.7116067,24.5651415 16.7116067,24.8608523 L16.7116067,27.9292308 L1.11660251,27.9292308 L1.11660251,1.07076923 Z M19.2323096,25.3962369 L17.766,27.0621754 L17.766,25.3962369 L19.2323096,25.3962369 Z" id="Shape"></path>
                            <path d="M2.96794142,6.92653846 L18.0319707,6.92653846 C18.323159,6.92653846 18.5591674,6.68677538 18.5591674,6.39115385 C18.5591674,6.09553231 18.323159,5.85576923 18.0319707,5.85576923 L2.96794142,5.85576923 C2.676841,5.85576923 2.44074477,6.09553231 2.44074477,6.39115385 C2.44074477,6.68677538 2.676841,6.92653846 2.96794142,6.92653846 Z" id="Shape"></path>
                            <path d="M2.96794142,12.3324954 L18.0319707,12.3324954 C18.323159,12.3324954 18.5591674,12.0928215 18.5591674,11.7971108 C18.5591674,11.5014 18.323159,11.2617262 18.0319707,11.2617262 L2.96794142,11.2617262 C2.676841,11.2617262 2.44074477,11.5014 2.44074477,11.7971108 C2.44074477,12.0928215 2.676841,12.3324954 2.96794142,12.3324954 Z" id="Shape"></path>
                            <path d="M2.96794142,17.7386308 L18.0319707,17.7386308 C18.323159,17.7386308 18.5591674,17.4988677 18.5591674,17.2032462 C18.5591674,16.9075354 18.323159,16.6678615 18.0319707,16.6678615 L2.96794142,16.6678615 C2.676841,16.6678615 2.44074477,16.9075354 2.44074477,17.2032462 C2.44074477,17.4988677 2.676841,17.7386308 2.96794142,17.7386308 Z" id="Shape"></path>
                            <path d="M7.72492469,22.0733723 L2.96794142,22.0733723 C2.676841,22.0733723 2.44074477,22.3131354 2.44074477,22.6087569 C2.44074477,22.9044677 2.676841,23.1441415 2.96794142,23.1441415 L7.72492469,23.1441415 C8.0160251,23.1441415 8.25212134,22.9044677 8.25212134,22.6087569 C8.25212134,22.3131354 8.0160251,22.0733723 7.72492469,22.0733723 Z" id="Shape"></path>
                        </g>
                    </g>
                </g>
            </g>
        </g>
    </g>
</svg>